<?xml version="1.0" encoding="utf-8"?>
<!-- Generator: Adobe Illustrator 22.0.0, SVG Export Plug-In . SVG Version: 6.00 Build 0)  -->
<svg version="1.1" id="Layer_1" xmlns="http://www.w3.org/2000/svg" xmlns:xlink="http://www.w3.org/1999/xlink" x="0px" y="0px"
	 viewBox="0 0 612 150" style="enable-background:new 0 0 612 150;" xml:space="preserve">
<style type="text/css">
	.st0{fill:#FCFDFE;}
	.st1{fill:#52C0F7;}
	.st2{fill:none;stroke:#FFFFFF;}
</style>
<path d="M41.5,17.2h12.7v31c7.4-6.5,15.9-9.7,25.6-9.7c10.6,0,19.6,3.7,27.1,11.2c7.5,7.5,11.2,16.5,11.2,27.1
	c0,10.6-3.7,19.6-11.2,27.1c-7.5,7.5-16.5,11.2-27.1,11.2c-9.7,0-18.2-3.2-25.6-9.7v9.7H41.5V17.2z M61.7,94.7c5,5,11,7.5,18.1,7.5
	c7,0,13.1-2.5,18.1-7.5c5-5,7.5-11,7.5-18.1c0-7-2.5-13-7.5-18c-5-5-11-7.4-18.1-7.4c-7,0-13.1,2.5-18.1,7.4c-5,5-7.5,11-7.5,18
	C54.2,83.7,56.7,89.7,61.7,94.7z"/>
<path d="M194.6,115h-12.7v-9.8c-7.4,6.6-15.9,9.8-25.6,9.8c-10.6,0-19.6-3.7-27.1-11.2c-7.5-7.5-11.2-16.5-11.2-27.1
	c0-10.6,3.7-19.6,11.2-27.1c7.5-7.5,16.5-11.2,27.1-11.2c9.8,0,18.3,3.2,25.6,9.7v-9.7h12.7V115z M174.4,58.6c-5-5-11-7.5-18.1-7.5
	c-7,0-13.1,2.5-18.1,7.5c-5,5-7.5,11-7.5,18.1c0,7,2.5,13,7.5,18c5,5,11,7.4,18.1,7.4c7,0,13.1-2.5,18.1-7.4c5-5,7.5-11,7.5-18
	C181.9,69.6,179.4,63.6,174.4,58.6z"/>
<path d="M204.6,115V38.4h12.7v5.4c5-3.6,10.6-5.4,17-5.4c8.2,0,15.3,2.9,21.1,8.7c5.8,5.8,8.7,12.8,8.7,21.1V115h-12.7V68.2
	c0-4.6-1.7-8.6-5-12c-3.4-3.4-7.4-5-12-5c-4.6,0-8.6,1.7-12,5c-3.4,3.4-5,7.4-5,12V115H204.6z"/>
<path d="M285.8,86v29h-13.1l-0.2-96.5h13.3v51l7.4,0l32.4-30.9h14.7l-39,38.1l39.6,38.3h-15.2l-32.6-29H285.8z"/>
<path d="M346.8,49.6c7.5-7.5,16.5-11.2,27.1-11.2c10.6,0,19.6,3.7,27.1,11.2c7.5,7.5,11.2,16.5,11.2,27.1c0,2-0.2,4.1-0.6,6.4h-62.4
	c1.4,5.6,4.4,10.2,9,13.7c4.6,3.6,9.8,5.3,15.7,5.3c7.4,0,13.6-2.7,18.6-8H408c-3.2,6.3-7.9,11.4-14,15.2
	c-6.1,3.8-12.8,5.7-20.1,5.7c-10.6,0-19.6-3.7-27.1-11.2c-7.5-7.5-11.2-16.5-11.2-27.1C335.6,66.1,339.4,57.1,346.8,49.6z
	 M349.2,70.3h49.4c-1.4-5.6-4.3-10.2-8.9-13.8c-4.6-3.6-9.9-5.4-15.8-5.4c-5.9,0-11.2,1.8-15.8,5.4
	C353.5,60.1,350.5,64.7,349.2,70.3z"/>
<path d="M465.7,47c5.1-5.8,11.5-8.6,19.2-8.6c7,0,13.1,2.5,18.1,7.5c5,5,7.5,11,7.5,17.9V115h-12.8V63.8c0-3.5-1.2-6.5-3.7-9
	c-2.5-2.5-5.5-3.7-9-3.7c-3.5,0-6.5,1.2-9,3.7c-2.5,2.5-3.7,5.5-3.7,9V115h-12.8l-0.1-51.1c0-3.5-1.2-6.5-3.7-9
	c-2.5-2.5-5.5-3.7-9-3.7c-3.5,0-6.5,1.2-9,3.7c-2.5,2.5-3.7,5.5-3.7,9V115h-12.8V38.4h12.8v3.4c3.8-2.2,8.1-3.4,12.7-3.4
	C454.2,38.4,460.6,41.3,465.7,47z"/>
<path d="M555.7,120.1c-2.9,7.1-7.5,12.9-14,17.4c-6.4,4.5-13.6,7-21.6,7.7v-12.8c5.1-0.6,9.7-2.4,13.8-5.3c4.1-2.9,7-6.7,8.8-11.2
	l3.5-8.9L513,38.4h14.7l25.9,49.9l19.7-49.9H588L555.7,120.1z"/>
<rect x="509.8" y="132.4" width="10.4" height="12.8"/>
</svg>
