<?xml version="1.0" encoding="utf-8"?>
<!-- Generator: Adobe Illustrator 22.0.0, SVG Export Plug-In . SVG Version: 6.00 Build 0)  -->
<svg version="1.1" id="Layer_1" xmlns="http://www.w3.org/2000/svg" xmlns:xlink="http://www.w3.org/1999/xlink" x="0px" y="0px"
	 viewBox="0 0 612 612" style="enable-background:new 0 0 612 612;" xml:space="preserve">
<style type="text/css">
	.st0{fill:#FCFDFE;}
	.st1{fill:#52C0F7;}
	.st2{fill:none;stroke:#FFFFFF;}
</style>
<path class="st0" d="M702.3,305.2c0,133.3-0.1,266.7,0.2,400c0,7.7-1.5,9.2-9.2,9.2c-267.4-0.3-534.8-0.3-802.3,0
	c-7.7,0-9.2-1.5-9.2-9.2c0.3-267.4,0.3-534.8,0-802.3c0-7.7,1.5-9.2,9.2-9.2c267.4,0.3,534.8,0.3,802.3,0c7.7,0,9.2,1.5,9.2,9.2
	C702.2,37,702.3,171.1,702.3,305.2z M427.8,384.8c-1,4-3.4,4.5-5.3,5.4c-82.6,38.9-165.1,77.8-247.7,116.7
	C99.6,542.3,24.5,577.8-50.7,613c-5.4,2.5-8.1,5.4-8,11.7c0.3,20.6,0.3,41.2,0.1,61.8c-0.1,8.1,2,10.8,10.3,6.7
	c17.4-8.7,35.2-16.6,52.8-24.9c99.9-47,199.7-94,299.6-141c67-31.6,134-63.1,201.1-94.6c6.5-3.1,10.7-6.5,10.4-15
	c-0.7-20.9-0.5-41.9-0.1-62.9c0.2-7.4-2-11.3-9-14.4c-21.6-9.5-42.7-19.9-64-30c-2.6-1.2-6.6-1.7-6.6-5.2c0-3.4,4.1-3.9,6.6-5.1
	c21-9.9,41.8-20.2,63-29.4c7.9-3.4,10.3-7.9,10-16.1c-0.6-19.1-0.9-38.2,0.1-57.3c0.6-11.1-3.7-16.3-13.5-20.9
	c-105.1-49.1-210-98.6-314.9-148C108.6-8.7,30-45.6-48.5-82.8c-7.4-3.5-10.5-3.3-10.3,6.2c0.5,19.8,0.4,39.7,0,59.5
	c-0.2,7.7,2.3,11.8,9.6,15.3c152.4,71.5,304.7,143.2,457,215.1c6.8,3.2,14.4,5.4,21.3,11.7c-25.2,11.9-49.2,23-73,34.8
	c-7.8,3.8-14.1,3.6-22-0.1C206.3,199.2,78.3,139.1-49.6,78.7c-7.1-3.3-9.2-2.4-9.1,5.4c0.2,20.6,0.4,41.2-0.1,61.8
	c-0.2,7.7,3.1,11.3,9.6,14.4c98.6,46.2,197.1,92.5,295.6,138.9c3.2,1.5,8.4,2.3,8.2,6.4c-0.2,3.8-5.4,4.5-8.7,6.1
	c-98.5,46.4-197,92.8-295.6,138.9c-6.8,3.2-9.2,7.3-9.1,14.7c0.5,19.8,0.5,39.7,0,59.5C-59,534.4-56.5,535-48,531
	c122.8-58.1,245.9-115.5,368.4-174.1c17.4-8.3,31.4-10.5,48.6-0.5C387.8,367.4,408.3,375.5,427.8,384.8z"/>
<path class="st1" d="M427.8,384.8c-19.5-9.3-40-17.4-58.8-28.4c-17.2-10-31.3-7.8-48.6,0.5C197.8,415.5,74.7,472.9-48,531
	c-8.5,4-10.9,3.4-10.7-6.4c0.5-19.8,0.4-39.7,0-59.5c-0.2-7.4,2.3-11.5,9.1-14.7c98.6-46.1,197.1-92.5,295.6-138.9
	c3.3-1.5,8.4-2.3,8.7-6.1c0.3-4.1-5-4.9-8.2-6.4c-98.5-46.4-197-92.7-295.6-138.9c-6.5-3-9.8-6.7-9.6-14.4
	c0.5-20.6,0.3-41.2,0.1-61.8c-0.1-7.8,2.1-8.8,9.1-5.4c127.9,60.4,255.9,120.6,383.7,181.1c7.8,3.7,14.2,4,22,0.1
	c23.7-11.7,47.8-22.8,73-34.8c-6.8-6.3-14.4-8.5-21.3-11.7C255.5,141.5,103.3,69.7-49.2-1.8c-7.3-3.4-9.8-7.5-9.6-15.3
	c0.5-19.8,0.5-39.7,0-59.5c-0.2-9.4,2.9-9.7,10.3-6.2C30-45.6,108.6-8.7,187.1,28.3c104.9,49.4,209.8,99,314.9,148
	c9.8,4.6,14.1,9.8,13.5,20.9c-1,19.1-0.7,38.2-0.1,57.3c0.3,8.2-2.1,12.7-10,16.1c-21.3,9.2-42.1,19.5-63,29.4
	c-2.6,1.2-6.6,1.7-6.6,5.1c0,3.4,4,3.9,6.6,5.2c21.3,10.1,42.5,20.5,64,30c7.1,3.1,9.2,7.1,9,14.4c-0.4,21-0.7,42,0.1,62.9
	c0.3,8.5-3.9,11.9-10.4,15C438,464.1,371,495.7,304,527.2c-99.9,47-199.7,94-299.6,141c-17.6,8.3-35.4,16.3-52.8,24.9
	c-8.3,4.1-10.3,1.4-10.3-6.7c0.2-20.6,0.2-41.2-0.1-61.8c-0.1-6.3,2.6-9.2,8-11.7c75.2-35.2,150.3-70.6,225.5-106
	c82.6-38.9,165.2-77.8,247.7-116.7C424.4,389.3,426.8,388.8,427.8,384.8z"/>
<rect x="-117.2" y="-103.4" class="st0" width="250.3" height="820.1"/>
<line class="st2" x1="256.2" y1="8.4" x2="256.2" y2="604.9"/>
<line class="st2" x1="289.5" y1="8.4" x2="289.5" y2="604.9"/>
<line class="st0" x1="221.6" y1="8.4" x2="221.6" y2="604.9"/>
<line class="st0" x1="288.8" y1="604.9" x2="222.3" y2="604.9"/>
<rect x="217" y="6.4" class="st1" width="75.2" height="600.9"/>
<polygon class="st0" points="258.7,304.5 210.4,326.8 -93.9,183.9 -83.2,146 "/>
<polygon class="st0" points="431.2,223.3 383,245.5 -58.1,38.4 32.5,38.4 "/>
<polygon class="st0" points="126,608.6 217.2,608.6 532.6,464.2 532.4,419.4 "/>
<polygon class="st0" points="-102.1,554 -13.5,554 387,365.8 342.6,344 "/>
<polygon class="st0" points="-101.6,436.9 -86.1,474.1 263.2,307.4 218.9,285.6 "/>
<rect x="-119.2" y="-102.7" class="st2" width="817.5" height="817.5"/>
<rect x="509.8" y="150.9" class="st0" width="69.2" height="332"/>
<rect x="532.6" y="-100.7" class="st0" width="190.6" height="814.8"/>
</svg>
